<svg width="128" height="128" viewBox="0 0 128 128" fill="none" xmlns="http://www.w3.org/2000/svg">
    <g clip-path="url(#clip0_3_11)">
        <circle cx="64" cy="64" r="64" fill="#082033"/>
        <g opacity="0.75">
            <g opacity="0.25" filter="url(#filter0_f_3_11)">
                <path d="M61.4856 58.25L91.9774 70.5372L104.25 111.817L81.3437 125.042L54.9136 91.936L61.4856 58.25Z" fill="url(#paint0_radial_3_11)"/>
            </g>
            <g opacity="0.25" filter="url(#filter1_f_3_11)">
                <path d="M61.4856 58.25L91.9774 70.5372L104.25 111.817L81.3437 125.042L54.9136 91.936L61.4856 58.25Z" fill="url(#paint1_radial_3_11)"/>
            </g>
            <g opacity="0.25" filter="url(#filter2_f_3_11)">
                <path d="M61.4856 58.25L91.9774 70.5372L104.25 111.817L81.3437 125.042L54.9136 91.936L61.4856 58.25Z" fill="url(#paint2_radial_3_11)"/>
            </g>
            <path d="M37 17.2346L72.4 48.2383L115 65.732L73.45 80.3679L40 109.033L46.15 63.3938L37 17.2346Z" fill="#D9D9D9"/>
            <path d="M11.5 47L11.8368 48.0365H12.9266L12.0449 48.677L12.3817 49.7135L11.5 49.0729L10.6183 49.7135L10.9551 48.677L10.0734 48.0365H11.1632L11.5 47Z" fill="white"/>
            <path d="M23.5 26L23.8368 27.0365H24.9266L24.0449 27.677L24.3817 28.7135L23.5 28.0729L22.6183 28.7135L22.9551 27.677L22.0734 27.0365H23.1632L23.5 26Z" fill="#D9D9D9"/>
            <path d="M21.5 73L21.8368 74.0365H22.9266L22.0449 74.677L22.3817 75.7135L21.5 75.0729L20.6183 75.7135L20.9551 74.677L20.0734 74.0365H21.1632L21.5 73Z" fill="#D9D9D9"/>
            <path d="M30.5 56L30.8368 57.0365H31.9266L31.0449 57.677L31.3817 58.7135L30.5 58.0729L29.6183 58.7135L29.9551 57.677L29.0734 57.0365H30.1632L30.5 56Z" fill="#D9D9D9"/>
            <path d="M54.5 13L54.8368 14.0365H55.9266L55.0449 14.6771L55.3817 15.7135L54.5 15.073L53.6183 15.7135L53.9551 14.6771L53.0734 14.0365H54.1632L54.5 13Z" fill="#D9D9D9"/>
            <path d="M77.5 8L77.8368 9.03647H78.9266L78.0449 9.67705L78.3817 10.7135L77.5 10.0729L76.6183 10.7135L76.9551 9.67705L76.0734 9.03647H77.1632L77.5 8Z" fill="#D9D9D9"/>
            <path d="M69.5 36L69.8368 37.0365H70.9266L70.0449 37.6771L70.3817 38.7135L69.5 38.073L68.6183 38.7135L68.9551 37.6771L68.0734 37.0365H69.1632L69.5 36Z" fill="#D9D9D9"/>
            <path d="M96.5 18L96.8368 19.0365H97.9266L97.0449 19.6771L97.3817 20.7135L96.5 20.0729L95.6183 20.7135L95.9551 19.6771L95.0734 19.0365H96.1632L96.5 18Z" fill="#D9D9D9"/>
            <path d="M104.5 44L104.837 45.0365H105.927L105.045 45.677L105.382 46.7135L104.5 46.0729L103.618 46.7135L103.955 45.677L103.073 45.0365H104.163L104.5 44Z" fill="#D9D9D9"/>
            <path d="M82.5 28L82.8368 29.0365H83.9266L83.0449 29.6771L83.3817 30.7135L82.5 30.073L81.6183 30.7135L81.9551 29.6771L81.0734 29.0365H82.1632L82.5 28Z" fill="#D9D9D9"/>
            <path d="M112.5 76L112.837 77.0365H113.927L113.045 77.6771L113.382 78.7135L112.5 78.073L111.618 78.7135L111.955 77.6771L111.073 77.0365H112.163L112.5 76Z" fill="#D9D9D9"/>
            <path d="M104.5 89L104.837 90.0365H105.927L105.045 90.6771L105.382 91.7135L104.5 91.073L103.618 91.7135L103.955 90.6771L103.073 90.0365H104.163L104.5 89Z" fill="#D9D9D9"/>
            <path d="M54.5 105L54.8368 106.036H55.9266L55.0449 106.677L55.3817 107.714L54.5 107.073L53.6183 107.714L53.9551 106.677L53.0734 106.036H54.1632L54.5 105Z" fill="#D9D9D9"/>
            <path d="M59.5 117L59.8368 118.036H60.9266L60.0449 118.677L60.3817 119.714L59.5 119.073L58.6183 119.714L58.9551 118.677L58.0734 118.036H59.1632L59.5 117Z" fill="#D9D9D9"/>
            <path d="M29.5 97L29.8368 98.0365H30.9266L30.0449 98.6771L30.3817 99.7135L29.5 99.0729L28.6183 99.7135L28.9551 98.6771L28.0734 98.0365H29.1632L29.5 97Z" fill="#D9D9D9"/>
            <path d="M13.5 87L13.8368 88.0365H14.9266L14.0449 88.6771L14.3817 89.7135L13.5 89.073L12.6183 89.7135L12.9551 88.6771L12.0734 88.0365H13.1632L13.5 87Z" fill="#D9D9D9"/>
        </g>
    </g>
    <defs>
        <filter id="filter0_f_3_11" x="50.9136" y="54.25" width="57.3368" height="74.7924" filterUnits="userSpaceOnUse" color-interpolation-filters="sRGB">
            <feFlood flood-opacity="0" result="BackgroundImageFix"/>
            <feBlend mode="normal" in="SourceGraphic" in2="BackgroundImageFix" result="shape"/>
            <feGaussianBlur stdDeviation="2" result="effect1_foregroundBlur_3_11"/>
        </filter>
        <filter id="filter1_f_3_11" x="50.9136" y="54.25" width="57.3368" height="74.7924" filterUnits="userSpaceOnUse" color-interpolation-filters="sRGB">
            <feFlood flood-opacity="0" result="BackgroundImageFix"/>
            <feBlend mode="normal" in="SourceGraphic" in2="BackgroundImageFix" result="shape"/>
            <feGaussianBlur stdDeviation="2" result="effect1_foregroundBlur_3_11"/>
        </filter>
        <filter id="filter2_f_3_11" x="50.9136" y="54.25" width="57.3368" height="74.7924" filterUnits="userSpaceOnUse" color-interpolation-filters="sRGB">
            <feFlood flood-opacity="0" result="BackgroundImageFix"/>
            <feBlend mode="normal" in="SourceGraphic" in2="BackgroundImageFix" result="shape"/>
            <feGaussianBlur stdDeviation="2" result="effect1_foregroundBlur_3_11"/>
        </filter>
        <radialGradient id="paint0_radial_3_11" cx="0" cy="0" r="1" gradientUnits="userSpaceOnUse" gradientTransform="translate(72.4851 78.2982) rotate(63.0663) scale(52.1406 31.2277)">
            <stop stop-color="#FD4026"/>
            <stop offset="1" stop-color="#7432FF" stop-opacity="0"/>
        </radialGradient>
        <radialGradient id="paint1_radial_3_11" cx="0" cy="0" r="1" gradientUnits="userSpaceOnUse" gradientTransform="translate(72.4851 78.2982) rotate(63.0663) scale(52.1406 31.2277)">
            <stop stop-color="#FD4026"/>
            <stop offset="1" stop-color="#7432FF" stop-opacity="0"/>
        </radialGradient>
        <radialGradient id="paint2_radial_3_11" cx="0" cy="0" r="1" gradientUnits="userSpaceOnUse" gradientTransform="translate(72.4851 78.2982) rotate(63.0663) scale(52.1406 31.2277)">
            <stop stop-color="#FF8A00"/>
            <stop offset="1" stop-color="#7432FF" stop-opacity="0"/>
        </radialGradient>
        <clipPath id="clip0_3_11">
            <rect width="128" height="128" fill="white"/>
        </clipPath>
    </defs>
</svg>